<?xml version="1.0" encoding="utf-8"?>
<!-- Generator: Adobe Illustrator 24.0.2, SVG Export Plug-In . SVG Version: 6.00 Build 0)  -->
<svg version="1.1" id="Layer_1" xmlns="http://www.w3.org/2000/svg" xmlns:xlink="http://www.w3.org/1999/xlink" 
	 viewBox="0 0 37 37"  xml:space="preserve" width="23.891" height="18.034">>
<style type="text/css">
	.st0{fill:#3700B3;}
</style>
<g>
	<path class="st0" d="M36.4,37c-11.9,0-23.8,0-35.8,0C0.1,36.7,0,36.3,0,35.7c0-9.9,0-19.9,0-29.8c0-1.7,0.2-3.4,0.5-5
		C0.6,0.3,0.9,0,1.6,0c1,0,2,0,3,0c1.6,0,3.2,0,4.7,0c0.7,0,1,0.3,1.1,0.9c0,0.2,0.1,0.4,0.1,0.6c0.1,0.6,0.2,1.2,0.3,1.8
		c0.2-0.8,0.3-1.7,0.4-2.5c0.1-0.6,0.4-0.9,1-0.9c2.6,0,5.2,0,7.9,0c0.6,0,0.9,0.3,1,0.9c0.1,0.7,0.3,1.5,0.3,2.3
		c0,0.4,0.2,0.4,0.5,0.4c4.6,0,9.2,0,13.9,0c0.6,0,1,0.2,1.2,0.7c0,10.7,0,21.4,0,32.1C36.8,36.6,36.6,36.8,36.4,37z M35.9,9.2
		c-11.6,0-23.2,0-34.8,0c0,8.9,0,17.8,0,26.7c11.6,0,23.2,0,34.8,0C35.9,27,35.9,18.1,35.9,9.2z M1.1,4.7c0,1.1,0,2.2,0,3.3
		c11.6,0,23.2,0,34.8,0c0-1.1,0-2.2,0-3.3C24.3,4.7,12.7,4.7,1.1,4.7z M20.4,3.6c-0.1-0.8-0.2-1.6-0.4-2.5c-2.6,0-5.2,0-7.8,0
		c-0.1,0.8-0.2,1.6-0.4,2.5C14.8,3.6,17.6,3.6,20.4,3.6z M9.3,1.1c-0.2,0-0.3,0-0.4,0c-2.3,0-4.6,0-6.9,0c-0.3,0-0.5,0-0.5,0.4
		c0,0.2-0.1,0.5-0.1,0.7C1.3,2.6,1.2,3.1,1.2,3.6c2.9,0,5.7,0,8.5,0C9.6,2.7,9.4,1.9,9.3,1.1z"/>
	<path class="st0" d="M26.9,29.9c-1,0.5-2,0.9-3,1.3c-1.2,0.5-2.6,0.6-3.9,0.5c-0.4,0-0.6-0.2-0.6-0.5c0-0.3,0.2-0.6,0.7-0.5
		c1,0,2,0,2.9-0.3c4-1.1,6.5-3.7,7.4-7.7c1.2-5.3-2.2-10.5-7.6-11.8c-4.8-1.1-9.9,1.6-11.6,6.2c-2,5.5,0.8,11.3,6.4,13.1
		c0.1,0,0.1,0,0.2,0.1c0.4,0.1,0.5,0.4,0.4,0.7c-0.1,0.3-0.4,0.4-0.8,0.3c-1.7-0.5-3.2-1.3-4.5-2.5c-1.5-1.4-2.5-3.1-3.1-5.1
		c0-0.1-0.1-0.2-0.1-0.3c-0.1,0.2-0.2,0.3-0.3,0.5c-0.5,0.8-0.9,1.7-1.4,2.5c-0.1,0.2-0.3,0.4-0.5,0.5c-1.4,0.9-2.8,1.7-4.2,2.5
		c-0.4,0.2-0.7,0.2-0.9-0.1c-0.2-0.3-0.1-0.6,0.3-0.8c0.1-0.1,0.2-0.1,0.2-0.1c1.2-0.7,2.5-1.5,3.7-2.2C7,26,7.1,25.9,7.2,25.7
		c0.7-1.2,1.3-2.4,2-3.6c0.2-0.3,0.3-0.6,0.2-1c-0.1-2,0.3-4,1.3-5.8c1.3-2.4,3.2-4.1,5.7-5.1c3.1-1.2,6.2-1.1,9.2,0.4
		c3.5,1.8,5.5,4.8,6,8.7c0.3,2.5-0.3,4.9-1.6,7c-0.2,0.2-0.1,0.4,0.1,0.5c1.5,1.5,3,3,4.5,4.5c0.5,0.5,0.8,1.1,0.8,1.8
		c-0.1,0.9-0.5,1.5-1.4,1.9c-0.9,0.3-1.6,0.2-2.3-0.5c-1.2-1.2-2.3-2.3-3.5-3.5C27.7,30.8,27.3,30.3,26.9,29.9z M27.8,29.2
		c0,0,0.1,0.1,0.1,0.1c1.5,1.5,3,3,4.5,4.5c0.1,0.1,0.2,0.2,0.3,0.2c0.3,0.2,0.7,0.2,1.1,0c0.3-0.2,0.5-0.5,0.5-0.9
		c0-0.4-0.2-0.7-0.4-0.9c-1.5-1.5-3-3-4.4-4.5c-0.1-0.1-0.1-0.1-0.1-0.1C28.8,28.3,28.3,28.7,27.8,29.2z"/>
	<path class="st0" d="M15.7,23.9c0.7-1,1.3-1.9,2-2.9c0.1-0.2,0.3-0.4,0.4-0.6c0.3-0.5,0.6-0.5,1-0.1c0.5,0.5,1.1,0.9,1.7,1.4
		c1-1.2,2-2.3,3.1-3.5c-0.4,0-0.8,0-1.1,0c-0.4,0-0.6-0.2-0.6-0.5c0-0.3,0.2-0.5,0.6-0.5c0.7,0,1.5,0,2.2,0c0.4,0,0.6,0.2,0.6,0.6
		c0,0.7,0,1.5,0,2.2c0,0.4-0.2,0.6-0.5,0.6c-0.3,0-0.5-0.2-0.5-0.6c0-0.1,0-0.2,0-0.4c0-0.1,0-0.2,0-0.4c0,0-0.1-0.1-0.1-0.1
		c0,0.1-0.1,0.2-0.1,0.3c-0.9,1.1-1.9,2.1-2.8,3.2c-0.4,0.5-0.6,0.5-1.1,0.1c-0.5-0.4-1-0.8-1.5-1.3c-0.2,0.3-0.5,0.7-0.7,1
		c-0.6,0.8-1.1,1.6-1.7,2.5c-0.3,0.4-0.5,0.5-0.9,0.2c-0.6-0.3-1.3-0.6-2-1c0.1,0.2,0.2,0.4,0.2,0.5c1.6,2.7,4,4,7,4
		c4.5,0,8-3.9,7.7-8.4c-0.3-4.4-4.1-7.9-8.9-7.3c-2.5,0.3-4.4,1.6-5.8,3.8c0,0.1-0.1,0.1-0.1,0.2c-0.2,0.3-0.5,0.4-0.8,0.2
		c-0.3-0.2-0.3-0.5-0.1-0.8c1.4-2.4,3.5-4,6.3-4.4c3.9-0.7,7.4,1.1,9.4,4.5c2,3.4,1.3,8.1-1.6,10.8c-2.1,1.9-4.5,2.7-7.3,2.4
		c-3.4-0.4-6.5-3-7.4-6.3c-0.4-1.5-0.5-3-0.2-4.5c0.1-0.5,0.3-0.7,0.7-0.6c0.3,0.1,0.5,0.4,0.4,0.8c-0.2,1.1-0.2,2.2,0,3.3
		c0,0.2,0.1,0.4,0.3,0.5C14,23.1,14.8,23.5,15.7,23.9z"/>
	<path class="st0" d="M13.3,5.8c3.5,0,7.1,0,10.6,0c0.6,0,0.8,0.2,0.8,0.5c0,0.4-0.3,0.6-0.8,0.6c-7.1,0-14.2,0-21.3,0
		c0,0-0.1,0-0.1,0c-0.4,0-0.7-0.2-0.7-0.6c0-0.3,0.3-0.5,0.7-0.5c3.2,0,6.4,0,9.7,0C12.6,5.8,13,5.8,13.3,5.8z"/>
	<path class="st0" d="M29,5.8c0.8,0,1.6,0,2.4,0c0.4,0,0.7,0.2,0.7,0.5c0,0.3-0.2,0.5-0.7,0.5c-1.6,0-3.3,0-4.9,0
		c-0.4,0-0.7-0.2-0.7-0.6c0-0.3,0.3-0.5,0.7-0.5C27.4,5.8,28.2,5.8,29,5.8z"/>
	<path class="st0" d="M34.6,6.3c0,0.4-0.3,0.7-0.7,0.7c-0.4,0-0.7-0.3-0.7-0.7c0-0.4,0.3-0.7,0.7-0.7C34.3,5.6,34.6,5.9,34.6,6.3z"
		/>
</g>
</svg>
